<svg id="Layer_1" data-name="Layer 1" xmlns="http://www.w3.org/2000/svg" viewBox="0 0 892.2 557.3"><defs><style>.cls-7{fill:#fff}.cls-15,.cls-18{fill:none;stroke-miterlimit:10}.cls-5{fill:#49aff7}.cls-6{fill:#fdc847}.cls-8{fill:#f85b3e}.cls-10{fill:#5180e7}.cls-13{fill:#bec0cf}.cls-14{fill:#fafbff;opacity:.16}.cls-15,.cls-18{stroke:#fff}.cls-15{stroke-width:.85px}.cls-16{fill:#4e80e8}.cls-17{fill:#26c2c3}.cls-18{stroke-width:.85px}.cls-19{fill:#f5ab58}.cls-20{fill:#70a1f5}.cls-21{fill:#3b73cf}.cls-22{fill:#47aef7}.cls-23{fill:#242d38}.cls-24{fill:#14191e}.cls-26{fill:#161f29}.cls-27{fill:#dc8a3a}.cls-28{fill:#4d80e8}.cls-31{fill:#181f26}.cls-32{fill:#3ba2f5}.cls-35{fill:#161c21}.cls-38{fill:#d8a99e}.cls-39{fill:#c3c5d2}.cls-40{fill:#d3d6e3}</style></defs><path d="M237.87 573.94S98.14 445.29 170.69 323.47 387 244.92 529.41 170.92s234.85-64.57 273.56 0c47.14 78.61-68 148-2.17 255s-4 148-4 148Z" transform="translate(-70.86 -16.64)" style="opacity:.65;fill:#fff"/><path d="M573.08 363.14c7.71 21.92 30.6 46.45 56.74 46.45 29.68 0 36.92-24.06 45.57-31.67 21.28-18.71 34.59-23.07 61.68-27.69 17.63-3 36.47-27.74 31.9-52.29-8.33-44.77-89.06-66.11-109.5-98.86-16.65-26.69-15.78-42.63-44.92-61.78" transform="translate(-70.86 -16.64)" style="stroke:#9ed7fb;stroke-width:1.55px;stroke-dasharray:3.88;fill:none;stroke-miterlimit:10"/><path d="M596.66 107.53c-.11-.25 12.92 7.83 12.92 7.83l-3.38 21.94-6.39-16.42-16.81-3.2-24-22.56Z" transform="translate(-70.86 -16.64)" style="fill:#2691ce"/><path style="fill:#38ade1" d="m488.13 78.48 47.21 42.19-6.39-16.42-40.82-25.77z"/><path class="cls-5" d="m488.13 78.48 62.46 13.26-11.87 6.98-50.59-20.24 40.82 25.77-20.18 12.46-20.64-38.23z"/><rect class="cls-6" x="239.82" y="77.66" width="79.29" height="54.79" rx="4.98" ry="4.98"/><path class="cls-6" d="m340.23 142.57 7.88 15.29a2.73 2.73 0 0 0 4.76.17l9.44-15.47Z" transform="translate(-70.86 -16.64)"/><path class="cls-7" d="M358.88 106c-7.67-.09-8.3 4.6-8.3 4.6s-.52-4.7-8.19-4.78-10.47 8.69-8.54 14c1.49 4.07 10.43 13 14.45 16.93a2.88 2.88 0 0 0 4 0c4.11-3.81 13.25-12.56 14.83-16.6 2.02-5.21-.58-14.05-8.25-14.15Z" transform="translate(-70.86 -16.64)"/><rect class="cls-8" x="713.34" y="196.76" width="58.36" height="40.33" rx="3.67" ry="3.67"/><path class="cls-8" d="m805.94 248.93 5.8 11.26a2 2 0 0 0 3.5.13l6.95-11.38Z" transform="translate(-70.86 -16.64)"/><circle class="cls-7" cx="742.22" cy="208.81" r="6.04"/><path class="cls-7" d="M822.51 245.66a1.83 1.83 0 0 0 1.81-2.17c-1.12-5.9-5.72-10.32-11.24-10.32S803 237.6 801.84 243.5a1.83 1.83 0 0 0 1.81 2.17ZM834.11 144.65c-.93 0-1.42-1.32-.81-2.16 3.73-5.21 13.24-8.86 24.13-8.89 16.33-.06 20.44 8.71 35.05-5.72 3.47-3.43 7.66-4.89 18.11.3s10-13.1 18.71-14c14.5-1.57 27.87 17.63 33.31 26.64 1.13 1.88 0 4.52-1.91 4.51ZM164.87 180.39c.68 0 1-1 .61-1.64-2.68-4-9.59-6.81-17.53-6.92-11.91-.16-11.67-8.7-24.42-14-16.22-6.8-23.3 14.11-29.68 13.32-10.56-1.3-18.62-1.41-22.65 5.39-.84 1.42 0 3.42 1.36 3.43Z" transform="translate(-70.86 -16.64)"/><circle class="cls-5" cx="100.52" cy="187.37" r="8.36"/><circle class="cls-5" cx="758.2" cy="293.6" r="3.52"/><circle class="cls-5" cx="695.7" cy="6.46" r="6.46"/><path class="cls-5" d="M479.55 102.12a1.63 1.63 0 0 1-1.63-1.63V89a1.63 1.63 0 0 1 3.26 0v11.51a1.63 1.63 0 0 1-1.63 1.61Z" transform="translate(-70.86 -16.64)"/><path class="cls-5" d="M485.31 96.37H473.8a1.63 1.63 0 1 1 0-3.26h11.51a1.63 1.63 0 1 1 0 3.26Z" transform="translate(-70.86 -16.64)"/><path d="m730.72 532.8-464.66.36a31.87 31.87 0 0 1-31.89-31.84l528.39-.41a31.87 31.87 0 0 1-31.84 31.89Z" transform="translate(-70.86 -16.64)" style="fill:#1f5eb8"/><path class="cls-10" d="m730.71 521.83-464.66.36a31.85 31.85 0 0 1-29.9-20.87h-2a31.87 31.87 0 0 0 31.89 31.84l464.66-.36a31.87 31.87 0 0 0 31.84-31.89h-2a31.85 31.85 0 0 1-29.83 20.92Z" transform="translate(-70.86 -16.64)"/><path d="M528.39 511.76h-60a10.67 10.67 0 0 1-10.68-10.66l81.37-.06a10.67 10.67 0 0 1-10.69 10.72Z" transform="translate(-70.86 -16.64)" style="fill:#06468e"/><path class="cls-10" d="m735.37 500.93-474 .37-.22-286.1a29.72 29.72 0 0 1 29.7-29.74l414.57-.32a29.72 29.72 0 0 1 29.74 29.7Z" transform="translate(-70.86 -16.64)"/><path style="fill:#d6d9e5" d="M215.07 193.37h424.64v266.39H215.07z"/><path class="cls-13" d="M215.16 434.3H639.8v25.47H215.16zM214.97 193.37h424.64v12.64H214.97z"/><path class="cls-14" d="M356.58 193.43 215.07 335.16l.1 124.77h.31l266.18-266.6-125.08.1zM254.75 459.89l77.68-.06 266.18-266.59-77.68.06-266.18 266.59zM589.86 459.63l49.91-49.98-.06-77.69-127.53 127.73 77.68-.06z"/><rect class="cls-15" x="427.51" y="294.88" width="174.27" height="100.67" rx="3.37" ry="3.37"/><path class="cls-16" d="M453.34 309.11h21.92v75.15h-21.92z"/><path class="cls-17" d="M486.9 342.08h21.92v42.17H486.9z"/><path class="cls-16" d="M520.47 317.11h21.92v67.15h-21.92z"/><path class="cls-17" d="M554.03 336.14h21.92v48.12h-21.92z"/><path class="cls-18" d="M427.51 254.39h133.82M427.51 272.25h75.42"/><rect class="cls-15" x="253.37" y="250.24" width="148.63" height="146.72" rx="4.43" ry="4.43"/><path class="cls-19" d="m351.63 328.31 32.78 9.03-15.45 11.68-17.33-13.04v-7.67z"/><path class="cls-19" d="M452.87 349.81 474.29 336l5.54 6.86-29.94 23.54a7.82 7.82 0 0 1-8 1.08 15.56 15.56 0 0 1-8.18-8.83Z" transform="translate(-70.86 -16.64)"/><path class="cls-19" d="m474.29 336 2.71-12.81a1.52 1.52 0 0 1 1.5-1.19 1.52 1.52 0 0 1 1.54 1.4l.3 4 10.76-7.89a1.64 1.64 0 0 1 2.53.84l1.88 6.08a1.62 1.62 0 0 1-.25 1.46c-2.16 2.89-11 14.25-16.84 15.53Z" transform="translate(-70.86 -16.64)"/><path class="cls-10" d="m337.9 317.84 28.58 11.86-8.54 19.21-22.03-9.63 1.99-21.44z"/><path class="cls-20" d="M436.47 346.93s.63-3.36 3.9-2.35c.56.17 1.06.35 1.52.53a3.55 3.55 0 0 1 2 4.63l-6.79 16.91a5.16 5.16 0 0 1-8.26 1.87l-1.41-1.29Z" transform="translate(-70.86 -16.64)"/><path class="cls-21" d="M415 359.54c.39-1.44 0-12.83 0-12.83l6.84 15.82Z" transform="translate(-70.86 -16.64)"/><path class="cls-10" d="m380.7 330.62-21.49 13.8 11.84 63h43.47l.76-64a9.87 9.87 0 0 0-6.52-9l-14.51-5.22-4 6.9Z" transform="translate(-70.86 -16.64)"/><path class="cls-21" d="m310.3 361.2-4.45-20.7 12.1 25.83-5.61 3.99-2.04-9.12z"/><path class="cls-10" d="M359.2 344.42s-6.77 4.14-4.75 18.77a127.31 127.31 0 0 0 6.3 25.73l20.89-8.82-5.64-26.46Z" transform="translate(-70.86 -16.64)"/><path class="cls-20" d="M359.2 386.43s-3.49 8.09 6.59 10.71l-1.26-2.93L383.69 384s1.77-6.37-4.91-6.67Z" transform="translate(-70.86 -16.64)"/><path class="cls-19" d="m384.08 383.35 24-12.49 5.17 7.81-37.39 24.11s-8.33 2.61-11.53-8.31Z" transform="translate(-70.86 -16.64)"/><path class="cls-19" d="m408.1 370.86 4.18-13.26a1.61 1.61 0 0 1 1.67-1.14 1.61 1.61 0 0 1 1.49 1.63l-.08 4.23 12.17-7.27a1.74 1.74 0 0 1 2.59 1.14l1.39 6.61a1.72 1.72 0 0 1-.41 1.52c-2.57 2.84-13 14-19.35 14.75Z" transform="translate(-70.86 -16.64)"/><path class="cls-22" d="m343.66 390.75 2.07 66.41-8.16 79.47-17.83.02 6.17-79.47-.44-66.43h18.19z"/><path class="cls-23" d="m408.43 553.27 7.5 5.83 6.75 1.36a7.13 7.13 0 0 1 5.7 6.38l.13 1.47-37.46-.06 1-15Z" transform="translate(-70.86 -16.64)"/><path class="cls-24" d="m390.9 568.5 37.75.06v-2.39a.85.85 0 0 0-.85-.85l-36.9-.06v3.24" transform="translate(-70.86 -16.64)"/><path style="fill:#36a6e6" d="m325.71 429.03 1.48-15.63 7.58-.97-9.06 16.6z"/><path class="cls-22" d="m300.19 390.75-.94 67.14-3.92 78.76 17.82-.01L323 457.5l6.35-66.75h-29.16z"/><path class="cls-23" d="m384 553.27 7.52 5.83 6.75 1.36a7.13 7.13 0 0 1 5.7 6.38l.13 1.47-37.46-.06 1-15Z" transform="translate(-70.86 -16.64)"/><path class="cls-24" d="m366.5 568.5 37.75.06v-2.39a.85.85 0 0 0-.85-.85l-36.9-.06v3.24" transform="translate(-70.86 -16.64)"/><path class="cls-26" d="M370.4 298.23s-3.24-12.53 12.63-14.17c13.72-1.41 18.17 6.15 19.62 9.95S388 309.3 388 309.3Z" transform="translate(-70.86 -16.64)"/><path class="cls-19" d="m380.7 330.62-1.92-18.89 13.54-1.37 1.92 18.89a6.81 6.81 0 0 1-6.09 7.46 6.81 6.81 0 0 1-7.45-6.09Z" transform="translate(-70.86 -16.64)"/><path class="cls-27" d="M378.4 312.79s3.13 16 15.61 14.44l-.83-8.1Z" transform="translate(-70.86 -16.64)"/><path class="cls-26" d="M395.36 288.5s12.74.89 5.91 16.05l-3-7.59Z" transform="translate(-70.86 -16.64)"/><path class="cls-19" d="M391.36 324.7c7.25-.77 12.72-5.77 12-13l-1.53-14.46a5.79 5.79 0 0 0-6.35-5.13l-14.89 1.57a5.79 5.79 0 0 0-5.13 6.35l1.31 12.42c.72 7.23 8.47 12.9 14.59 12.25Z" transform="translate(-70.86 -16.64)"/><path class="cls-26" d="M377.33 308.33s6.93-5.24 3.22-14.66l-7.41.78s-1.2-1.57-2.58.75 2.67 12.63 2.67 12.63Z" transform="translate(-70.86 -16.64)"/><circle class="cls-19" cx="375.3" cy="309.3" r="4.75" transform="rotate(-6.03 182.124 973.808)"/><path class="cls-26" d="M380.66 301.8s.08 9.72 2.41 12.4 4.24-.5 11.84-2.14 8.77 2 8.77 2 .21 9.78-9.82 10.84c-7.78.82-15.87-.54-15.08-13.13s-3.68-15.37-3.68-15.37Z" transform="translate(-70.86 -16.64)"/><path class="cls-26" d="M404.48 281.2c-2.46-5-7.76-4.93-12.91-1.71a16.61 16.61 0 0 1-4.58 2.1C365 287.28 375.42 300 375.42 300l5.13-6.35a21.91 21.91 0 0 0 11.05 1.09 33.46 33.46 0 0 0 7.33-1.9l.11-.05.54-.2a6 6 0 0 0 2.27-1.56c2.67-2.03 5.23-4.53 2.63-9.83Z" transform="translate(-70.86 -16.64)"/><rect class="cls-28" x="780.08" y="473.41" width="57.31" height="12.75" rx="1.38" ry="1.38" transform="rotate(180 773.305 471.465)"/><path class="cls-23" transform="rotate(180 773.305 479.595)" d="M785.16 486.16h47.16v3.51h-47.16z"/><path class="cls-23" d="m759.99 473.03 7.37 75.93h-7.37l-8.25-75.93h8.25z"/><path style="fill:#362b40" d="m717.69 473.03-7.37 75.93h7.37l8.25-75.93h-8.25z"/><path class="cls-23" transform="rotate(180 774.265 518.51)" d="M788.99 524.82h41.42v4.01h-41.42z"/><path class="cls-19" d="m697.87 503.25.12 39.03-12.81-.15-1.74-39.58 14.43.7z"/><path d="m751.59 539.42 21.23 1.24.41-53.41 13.76 2 14.67-25.94s-33.2-8.21-47.23 3.91c-1.12 1-2 4.37-2.09 6Z" transform="translate(-70.86 -16.64)" style="fill:#ed4b33"/><path class="cls-31" d="m754.1 550.19-7.52 5.81-6.75 1.36a7.13 7.13 0 0 0-5.7 6.38l-.13 1.47 37.46-.06-1-15Z" transform="translate(-70.86 -16.64)"/><path class="cls-24" d="m771.62 565.41-37.75.06v-2.39a.85.85 0 0 1 .85-.85l36.9-.06v3.24" transform="translate(-70.86 -16.64)"/><path class="cls-19" d="m727.8 505.17.13 39.03-12.81-.15-2.7-39.59 15.38.71z"/><path class="cls-8" d="M802.74 541.74v-52.48s28.79 1.91 28.07-27.22c0 0-43.12-3.13-46.31 0-8.65 8.49-4.54 78.7-4.54 78.7" transform="translate(-70.86 -16.64)"/><path class="cls-23" d="m783.71 550.31-7.52 5.83-6.75 1.36a7.13 7.13 0 0 0-5.7 6.38l-.13 1.47 37.46-.06-1-15Z" transform="translate(-70.86 -16.64)"/><path class="cls-24" d="m801.22 565.54-37.75.06v-2.39a.85.85 0 0 1 .85-.85l36.9-.06v3.24" transform="translate(-70.86 -16.64)"/><circle class="cls-19" cx="667.05" cy="384.91" r="7.87"/><path class="cls-19" d="M742.78 399.74c.35.17 13.73 8.87 13.73 8.87l-6 7.13-12.6-9ZM740.91 394.26l-10.23-4.17a1.28 1.28 0 0 0-1.62.59 1.28 1.28 0 0 0 .38 1.62l8.62 6.35Z" transform="translate(-70.86 -16.64)"/><path class="cls-32" d="M820 394.21s-7.58 18.52-33.07 40.13a9.28 9.28 0 0 1-12.77-.75c-3.17-3.39-5-5.54-2.08-9.15l18.06-26.34Z" transform="translate(-70.86 -16.64)"/><path class="cls-32" d="m776.54 435.8-34.2-21.8 9.89-10.48 32.94 17.61-3.43 11.66a4.34 4.34 0 0 1-5.2 3.01Z" transform="translate(-70.86 -16.64)"/><path class="cls-7" d="M806.45 387.58a28.34 28.34 0 0 1 20.25 15c6.74 13.31-1.62 57.9-1.62 57.9h-38S783 413.16 790 399.09c3.8-7.55 16.45-11.51 16.45-11.51Z" transform="translate(-70.86 -16.64)"/><path class="cls-5" d="M817.24 391.7s-14.55 10.42-15.1 33.23 3 53.63 28.48 44.33c0 0 3.3-2 0-6.93s-4.58-25.72-.93-35.94l-5.52-28.78s-1.93-2.8-6.93-5.91ZM799.24 390.57s-6.89 7.61-7.57 23.57c-.54 12.55 1.71 44.24 1.71 44.24l-4.85 1.87-2 .32-.64-17.29s-1.13-12.07-1.62-15c-1.72-10.28-.72-30.17 14.97-37.71Z" transform="translate(-70.86 -16.64)"/><path class="cls-32" d="m757.11 418.27-10.88-15.64 6.41 15.72-19.18 3.18 23.34-.5.31-2.76z"/><path d="M808.94 444.47s-8.17-2.26-14.31-1.3c-4.4.69-8 6.64-7.64 11.09l26.23 1.25Z" transform="translate(-70.86 -16.64)" style="fill:#e29080"/><path class="cls-5" d="M820.78 394.21s17.22 11.44 29.82 46.51c1.57 4.36-2.49 3.06-6.64 5.13-3.9 1.95-6.33 3-8.79-.59l-20.76-29.83Z" transform="translate(-70.86 -16.64)"/><path class="cls-5" d="m844.2 452.51-40.12-.34.24-14 39.77-.85a7.6 7.6 0 0 1 7.77 7.57 7.6 7.6 0 0 1-7.66 7.62Z" transform="translate(-70.86 -16.64)"/><path class="cls-26" d="M783.9 356.94s-3.94 7.94 0 31.45a308.71 308.71 0 0 1 41 0s4.9-28.8-9.65-38.82Z" transform="translate(-70.86 -16.64)"/><path class="cls-19" d="m798.2 380.46 1.7 12.62a6.25 6.25 0 0 0 7 5.36 6.25 6.25 0 0 0 5.35-7l-1.64-12.16c-.45-3.33-3.16-2.85-6.58-2.39-3.38.44-6.28.23-5.83 3.57Z" transform="translate(-70.86 -16.64)"/><path class="cls-27" d="M812.74 375.42s-1.61 14.43-13.1 15.7l-1.13-8.34Z" transform="translate(-70.86 -16.64)"/><path class="cls-7" d="M812.3 391.41s-.16 6.1-7.45 5.74a5.23 5.23 0 0 1-4.63-3.21 6.74 6.74 0 0 1-.4-1.58l.93 5.52 5.31 2.84 3.57-1.45 2.08-2.4 1.7-2.65V392Z" transform="translate(-70.86 -16.64)"/><circle class="cls-26" cx="734.21" cy="348.03" r="18.18"/><path class="cls-19" d="M795.41 356.32h10.74a7.84 7.84 0 0 1 7.84 7.84v19.51a3.62 3.62 0 0 1-3.62 3.62H789.6a2 2 0 0 1-2-2v-21.1a7.84 7.84 0 0 1 7.84-7.84Z" transform="rotate(-179.49 765.319 363.641)"/><path d="M807 362.45s-.19 7.4 4.73 8.22 2.27-8.22 2.27-8.22Z" transform="translate(-70.86 -16.64)" style="fill:#1e2326"/><circle class="cls-19" cx="814.04" cy="371.22" r="4.37" transform="rotate(-89.48 770.197 398.663)"/><path class="cls-26" d="M789.64 357.81s8.72 10.46 22 7.24c0 0 5.08-.55 3.11-8.33s-22.86-8.48-25.11 1.09Z" transform="translate(-70.86 -16.64)"/><path class="cls-26" d="M791.17 357.28s-4.66 1.07-3.87 10.46c0 0-5.5-9.67-2.52-14.33 4.8-7.51 14-1.72 14-1.72Z" transform="translate(-70.86 -16.64)"/><path class="cls-23" d="m795.27 441.83 28.52 110.53h-9.5l-35.06-110.53h16.04z"/><path class="cls-35" d="m795.27 441.83 4.45 17.22-11.9 9.87-8.59-27.09h16.04z"/><path class="cls-23" d="m660.38 441.83-28.52 110.53h9.51l35.05-110.53h-16.04z"/><path class="cls-35" d="m660.38 441.83-6.56 25.42 16.56-6.36 6.04-19.06h-16.04z"/><path class="cls-23" transform="rotate(180 764.375 448.295)" d="M698.09 453.02h203.43v7.18H698.09z"/><rect class="cls-28" x="160.12" y="476.76" width="57.31" height="12.75" rx="1.38" ry="1.38" transform="rotate(180 153.34 474.82)"/><path class="cls-23" transform="rotate(180 153.34 482.95)" d="M165.19 489.51h47.16v3.51h-47.16z"/><path class="cls-23" d="m140.02 476.39 7.37 75.92h-7.37l-8.25-75.92h8.25zM97.72 476.39l-7.37 75.92h7.37l8.25-75.92h-8.25z"/><path class="cls-23" transform="rotate(180 154.3 521.86)" d="M169.02 528.17h41.42v4.01h-41.42z"/><path class="cls-31" d="m232 545.89 4.76 7.76 5.58 3.5a6.83 6.83 0 0 1 2.94 7.63l-.38 1.36-33.52-12.72 6-13Z" transform="translate(-70.86 -16.64)"/><path class="cls-24" d="M211.21 553.6 245 566.42l.81-2.14a.82.82 0 0 0-.47-1.05l-33-12.53-1.1 2.9" transform="translate(-70.86 -16.64)"/><path class="cls-19" d="m146.57 523.74 8.19-20.3 15.47 5.85-9.05 19.96-14.61-5.51z"/><path d="M236 449s32.73-1.66 29.92 10.85-24.08 80.56-24.08 80.56l-23.29-7.05 16.63-55.6-40.11-15.07Z" transform="translate(-70.86 -16.64)" style="fill:#1aa485"/><path class="cls-23" d="m245.16 551.63 7.2 5.58 6.46 1.3a6.83 6.83 0 0 1 5.45 6.1l.12 1.41-35.86-.02 1-14.33Z" transform="translate(-70.86 -16.64)"/><path class="cls-24" d="m228.39 566.2 36.14.06V564a.82.82 0 0 0-.82-.82l-35.32-.05v3.1" transform="translate(-70.86 -16.64)"/><path class="cls-19" d="m158.68 535 .49-21.88h16.53l-1.4 21.87-15.62.01z"/><path d="m205.07 457.36 42.15 1.92s6.06.33 5.65 14.52-4.23 71.3-4.23 71.3l-20.25.7V486l-42.2-.52a22.7 22.7 0 0 1-20.69-13.38 16.53 16.53 0 0 1-1.16-10.31Z" transform="translate(-70.86 -16.64)" style="fill:#20b194"/><path class="cls-38" d="M245.07 448.86c0 4 2.7 4.6 6.7 4.61s7.78-.58 7.78-4.58a7.24 7.24 0 1 0-14.49 0Z" transform="translate(-70.86 -16.64)"/><path class="cls-38" d="M240 452.95h8.37a4 4 0 0 0 4-4 4 4 0 0 0-4-4L240 445a4 4 0 0 0-4 4 4 4 0 0 0 4 3.95Z" transform="translate(-70.86 -16.64)"/><path class="cls-39" d="m240.31 453.8 2.79-13.7-34.42-3.75-6.81-41.17c-.69-3.65-5-7.53-8.66-6.83-3.66.69-7 4.94-6.32 8.59l6.7 48.1a6.74 6.74 0 0 0 5 5.29Z" transform="translate(-70.86 -16.64)"/><path class="cls-40" d="M171.55 389.53a7.3 7.3 0 0 0-2.07.48l-.35.13c-5.91 2.31-9.91 8.65-10.18 14.59l5.38 57.05c35.66-.31 40.73-4.42 40.73-4.42L202.23 399c-.43-5.5-3-10.68-9.23-11.2Z" transform="translate(-70.86 -16.64)"/><path class="cls-39" d="m104.51 394.97-.93 26.22 35 6.64-30.84-9.63-3.23-23.23z"/><path class="cls-19" d="M210.82 453.34c-.27 4 2.39 4.77 6.38 5s7.8-.07 8.07-4.06a7.24 7.24 0 0 0-14.45-1Z" transform="translate(-70.86 -16.64)"/><path class="cls-19" d="m205.47 457.09 8.35.57a4 4 0 0 0 4.24-3.69 4 4 0 0 0-3.69-4.24l-8.35-.57a4 4 0 0 0-4.24 3.69 4 4 0 0 0 3.69 4.24Z" transform="translate(-70.86 -16.64)"/><path class="cls-40" d="m205.74 458 3.7-13.49-37.51-6 2.13-34.88c-.45-3.69-4.5-7.84-8.19-7.4-3.69.45-7.33 4.46-6.88 8.16l-2.7 41.79a6.74 6.74 0 0 0 4.66 5.61Z" transform="translate(-70.86 -16.64)"/><path class="cls-24" d="m270.63 411.62-40.92 3.86a2.86 2.86 0 0 0-2.58 2.52l-4.29 36.88a2.86 2.86 0 0 0 3.11 3.18l41.6-3.92a2.86 2.86 0 0 0 2.58-2.57l3.61-36.81a2.86 2.86 0 0 0-3.11-3.14Z" transform="translate(-70.86 -16.64)"/><path class="cls-23" d="m273 411.4-40.92 3.86a2.86 2.86 0 0 0-2.58 2.52l-4.29 36.88a2.86 2.86 0 0 0 3.11 3.18l41.6-3.92a2.86 2.86 0 0 0 2.58-2.57l3.61-36.81a2.86 2.86 0 0 0-3.11-3.14Z" transform="translate(-70.86 -16.64)"/><path class="cls-24" d="m224 455.13-28 2.64a1.55 1.55 0 0 0-1.4 1.69 1.55 1.55 0 0 0 1.69 1.4l29.71-2.7Z" transform="translate(-70.86 -16.64)"/><circle class="cls-7" cx="254" cy="433.35" r="4.48" transform="rotate(-5.39 41.67 1177.354)"/><path class="cls-19" d="m176.35 389.4-.52-19.06 13.67-.37.5 19.03c.1 3.77-2.25 4.68-6 4.78l-1.07-.11c-3.78.13-6.48-.49-6.58-4.27Z" transform="translate(-70.86 -16.64)"/><path class="cls-27" d="M175.37 371.37s2 16.28 14.57 15.63l-.23-8.18Z" transform="translate(-70.86 -16.64)"/><path d="M195.87 351.64s6.7 5.39 0 16.87L189 354Z" transform="translate(-70.86 -16.64)" style="fill:#171e21"/><path class="cls-19" d="m187.46 383.25-.45.05a12.27 12.27 0 0 1-13.61-10.77l-1.61-13.76a3.18 3.18 0 0 1 2.79-3.52l16-1.87a5.67 5.67 0 0 1 6.29 5l1.32 11.28a12.27 12.27 0 0 1-10.73 13.59Z" transform="translate(-70.86 -16.64)"/><path class="cls-26" d="M173.38 370.57a5 5 0 0 0 4.45-4.65c.74-5.16-1.34-8.59-1.06-8.59 9 .12 21.27-1.94 22.77-8.29s-7.08-15.62-15.08-10.12c-7 4.81-16.8 10.32-16.8 10.32-5.39 2.39-11.48 20.72 6.73 26.89 0 .01-1.48-4-1.01-5.56Z" transform="translate(-70.86 -16.64)"/><circle class="cls-19" cx="171.76" cy="368.51" r="4.42" transform="rotate(-6.66 -6.56 969.29)"/></svg>