<svg xmlns="http://www.w3.org/2000/svg" width="33.532" height="31.813" viewBox="0 0 33.532 31.813"><path d="M470.614,1301.25h-17.2a8.178,8.178,0,0,0-8.168,8.168v22.354a1.29,1.29,0,0,0,.8,1.191,1.269,1.269,0,0,0,.494.1,1.284,1.284,0,0,0,.911-.378l4.151-4.151a2.136,2.136,0,0,1,1.52-.629h17.492a8.178,8.178,0,0,0,8.168-8.168v-10.317A8.178,8.178,0,0,0,470.614,1301.25Zm5.589,18.486a5.6,5.6,0,0,1-5.589,5.589h-17.49a4.7,4.7,0,0,0-3.345,1.386l-1.95,1.95v-19.242a5.6,5.6,0,0,1,5.589-5.589h17.2a5.6,5.6,0,0,1,5.589,5.589Zm-19.345-5.159a1.72,1.72,0,1,1-1.72-1.72A1.72,1.72,0,0,1,456.857,1314.577Zm6.878,0a1.72,1.72,0,1,1-1.72-1.72A1.72,1.72,0,0,1,463.736,1314.577Zm6.878,0a1.72,1.72,0,1,1-1.72-1.72A1.72,1.72,0,0,1,470.614,1314.577Z" transform="translate(-445.25 -1301.25)"></path></svg>