<svg xmlns="http://www.w3.org/2000/svg" width="35" height="35" viewBox="0 0 35 35"><g transform="translate(0)"><path d="M15.076,12.106a4.717,4.717,0,0,1,4.987.289,1.109,1.109,0,0,0,1.655-.289,1.415,1.415,0,0,0-.26-1.84,6.873,6.873,0,0,0-7.446-.5,4.7,4.7,0,0,0-2.541,4.166c0,3.443,2.706,4.586,4.326,5.257a6.19,6.19,0,0,1,.579.25l.508.21c1.678.723,2.695,1.314,2.695,3.036a1.675,1.675,0,0,1-.957,1.551,5.252,5.252,0,0,1-5.342-.355,1.119,1.119,0,0,0-1.637.414,1.409,1.409,0,0,0,.372,1.82,7.509,7.509,0,0,0,4.349,1.314,6.515,6.515,0,0,0,3.392-.88,4.359,4.359,0,0,0,2.186-3.85c0-3.68-2.635-4.81-4.207-5.48l-.461-.21-.638-.263c-1.69-.71-2.8-1.314-2.8-2.812a2.152,2.152,0,0,1,1.241-1.827Z" transform="translate(0.606 -0.734)"></path><path d="M35.483,21.851A16.129,16.129,0,0,0,23.51,3.763a1.25,1.25,0,0,0-.624,2.422,13.73,13.73,0,0,1,10.289,13.3,13.145,13.145,0,0,1-.212,2.384.338.338,0,0,0,0,.112,1.25,1.25,0,0,0,0,.375,1.424,1.424,0,0,0,.187.449,7.4,7.4,0,0,1,1.272,4.17,7.487,7.487,0,0,1-7.483,7.49,7.378,7.378,0,0,1-4.166-1.248h-.137a1.4,1.4,0,0,0-.312-.137,1.246,1.246,0,0,0-.437,0,13.208,13.208,0,0,1-2.432.137A13.725,13.725,0,0,1,5.738,19.479,13.145,13.145,0,0,1,5.95,17.1a.262.262,0,0,0,0-.1,1.337,1.337,0,0,0,0-.387,1.424,1.424,0,0,0-.212-.449,7.4,7.4,0,0,1-1.247-4.17A7.487,7.487,0,0,1,11.974,4.5,7.378,7.378,0,0,1,16.14,5.747a1.25,1.25,0,0,0,1.4-2.072A9.982,9.982,0,0,0,3.431,17.108a16.134,16.134,0,0,0,18.4,18.413A9.982,9.982,0,0,0,35.545,21.789Z" transform="translate(-2.014 -1.991)"></path></g></svg>